<svg width="135" height="54" viewBox="0 0 135 54" fill="none" xmlns="http://www.w3.org/2000/svg">
<path d="M44.4667 22.164L43.7828 24.1117C43.7116 24.2598 43.6642 24.4179 43.6423 24.5804C43.6423 24.7891 43.7828 24.8421 44.2209 24.8421H45.1691V25.271H41.5353V24.8371H42.149C42.9383 24.8553 43.0788 24.7328 43.3597 23.8434L47.0387 13.671H47.5821L51.5855 24.8355H52.833V25.271H47.5938V24.8371H49.0989L48.1507 22.1591L44.4667 22.164ZM46.3062 17.1209L44.634 21.7284H47.9785L46.3062 17.1209Z" fill="#191929"/>
<path d="M61.2909 17.1205L63.1521 21.9368L65.505 14.9807C65.5723 14.8325 65.6136 14.674 65.627 14.512C65.627 14.199 65.4866 14.1112 64.9247 14.1112H64.3277V13.6773H67.5752V14.1129H67.2408C66.5551 14.1294 66.2742 14.3563 65.9765 15.2076L62.4849 25.5026H62.01L59.9548 20.2027L57.637 25.5026H57.2507L52.9146 14.1129H51.7206V13.6773H63.5551V14.1129H62.5902L61.2909 17.1205ZM55.438 14.1129L58.4932 22.1637L59.6638 19.4856L57.6103 14.1129H55.438ZM60.1203 14.1129L61.0233 16.4067L62.0267 14.1112L60.1203 14.1129Z" fill="#191929"/>
<path d="M69.3657 22.164L68.68 24.1117C68.6088 24.2597 68.5614 24.4179 68.5396 24.5804C68.5396 24.7891 68.68 24.8421 69.1182 24.8421H70.0663V25.271H66.4325V24.8371H67.0412C67.8305 24.8553 67.971 24.7328 68.2519 23.8434L71.9309 13.671H72.4744L76.4777 24.8355H77.7436V25.271H72.4911V24.8371H73.9961L73.048 22.1591L69.3657 22.164ZM71.2051 17.1209L69.5329 21.7284H72.8774L71.2051 17.1209Z" fill="#191929"/>
<path d="M81.8854 19.9377L78.4974 14.1129H77.4255V13.6773H82.8151V14.1129H81.3235L84.1847 19.1726L86.3436 14.878C86.5376 14.4955 86.5376 14.4955 86.5376 14.3911C86.5376 14.1659 86.4138 14.1129 85.9239 14.1129H85.0459V13.6773H88.4339V14.1129H88.1128C87.3938 14.1477 87.1998 14.2785 86.8319 15.0172L84.3436 19.9377V24.8417H85.9239V25.2707H80.3051V24.8368H81.8854V19.9377Z" fill="#191929"/>
<path d="M51.1404 33.7143C52.3511 34.8737 53.0367 36.5663 53.0367 38.3749C53.02 40.0631 52.3398 41.6784 51.1404 42.8781C50.1036 43.8867 48.7992 44.3902 47.2775 44.3902C45.8415 44.4234 44.4534 43.8777 43.4313 42.8781C40.9033 40.3366 40.9033 36.2558 43.4313 33.7143C45.5969 31.6974 48.9731 31.6974 51.1387 33.7143H51.1404ZM44.9949 34.0108C44.6286 34.7577 44.4614 36.0794 44.4614 38.2937C44.4614 40.7631 44.6554 42.0665 45.1103 42.8317C45.5651 43.5969 46.2507 43.9281 47.2842 43.9281C48.4079 43.9281 49.1103 43.5107 49.5668 42.5899C49.9364 41.8595 50.0936 40.5213 50.0936 38.3815C50.0936 35.826 49.9263 34.5391 49.4447 33.7739C48.9631 33.0088 48.3076 32.6626 47.3042 32.6626C46.1537 32.6626 45.4347 33.0883 44.9965 34.0091L44.9949 34.0108Z" fill="#191929"/>
<path d="M56.3576 32.9327H54.9529V32.4972H60.1151C62.274 32.4972 63.0298 32.6363 63.7673 33.1746C64.4108 33.6453 64.7786 34.4 64.7506 35.1918C64.7631 36.1608 64.2281 37.0555 63.3643 37.5105C62.8208 37.8053 62.5282 37.8583 61.2756 37.9278C63.2589 38.2591 64.5064 39.5973 64.5064 41.4059V41.7719C64.4925 41.9222 64.4863 42.0731 64.488 42.224C64.488 43.1283 64.7523 43.5291 65.366 43.5291C65.6499 43.5123 65.9287 43.4473 66.1904 43.337V43.7891C65.5825 44.0342 64.9336 44.164 64.2773 44.1717C63.2589 44.1717 62.5566 43.7709 62.1887 42.971C61.9245 42.4145 61.8542 42.0501 61.7673 40.7633C61.6603 38.688 61.1853 38.0786 59.7807 38.1282H58.8158V43.6583H60.2205V44.0906H54.9529V43.6566H56.3576V32.9327ZM60.1151 37.6976C61.8175 37.6976 62.2573 37.1759 62.2573 35.1421C62.2573 34.2031 62.0984 33.6515 61.7656 33.3203C61.4496 33.0255 61.0633 32.9377 60.1151 32.9377H58.8158V37.7026L60.1151 37.6976Z" fill="#191929"/>
<path d="M69.3785 32.9327H67.9738V32.4972H73.4588C75.004 32.4972 75.4421 32.5502 76.0575 32.7588C78.0074 33.4545 79.2883 35.6622 79.2883 38.3237C79.2883 40.3923 78.5508 42.1329 77.2348 43.1929C76.6646 43.6403 75.987 43.9336 75.2682 44.0442C74.6669 44.0923 74.0636 44.11 73.4605 44.0972H67.9805V43.6633H69.3785V32.9327ZM73.4521 43.6616C74.6813 43.6616 75.2247 43.4181 75.6645 42.706C76.1913 41.8183 76.3485 40.7931 76.3485 38.2889C76.3485 35.7847 76.1896 34.7761 75.6645 33.89C75.2264 33.1779 74.6813 32.9344 73.4521 32.9344H71.8368V43.6633L73.4521 43.6616Z" fill="#191929"/>
<path d="M82.5906 32.9327H81.1859V32.4972H86.4535V32.9327H85.0488V43.6616H86.4535V44.0906H81.1859V43.6566H82.5906V32.9327Z" fill="#191929"/>
<path d="M90.0164 33.9232V42.4095C89.9996 43.5407 90.105 43.6616 90.9645 43.6616H91.6502V44.0906H88.0849V43.6566H88.5414C89.4026 43.6566 89.5063 43.5175 89.4896 42.4045V34.1832C89.5063 33.0702 89.4026 32.9311 88.5414 32.9311H88.0849V32.4972H91.8776L97.4963 39.9053V34.1832C97.5147 33.0536 97.4094 32.9311 96.5482 32.9311H96.0917V32.4972H99.4278V32.9327H98.978C98.1167 32.9327 98.0114 33.0553 98.0298 34.1848V44.2181H97.6251L90.0164 33.9232Z" fill="#191929"/>
<path d="M103.15 40.9839L102.465 42.9316C102.394 43.0797 102.346 43.2378 102.324 43.4003C102.324 43.609 102.465 43.662 102.903 43.662H103.851V44.091H100.219V43.657H100.833C101.622 43.6753 101.764 43.5527 102.045 42.6633L105.724 32.4909H106.267L110.271 43.6554H111.52V44.091H106.276V43.657H107.781L106.838 40.9839H103.15ZM104.99 35.9408L103.318 40.5484H106.654L104.99 35.9408Z" fill="#191929"/>
<path d="M114.026 32.9327H112.622V32.4972H117.784C119.944 32.4972 120.699 32.6363 121.436 33.1746C122.08 33.6453 122.447 34.4 122.419 35.1918C122.432 36.1608 121.897 37.0555 121.033 37.5105C120.49 37.8053 120.197 37.8583 118.943 37.9278C120.926 38.2591 122.174 39.5973 122.174 41.4059V41.7719C122.16 41.9222 122.155 42.0731 122.157 42.224C122.157 43.1283 122.421 43.5291 123.035 43.5291C123.319 43.5124 123.599 43.4474 123.861 43.337V43.7891C123.252 44.0344 122.603 44.1642 121.946 44.1717C120.928 44.1717 120.225 43.7709 119.857 42.971C119.595 42.4145 119.523 42.0501 119.436 40.7633C119.331 38.6947 118.857 38.0852 117.451 38.1382H116.486V43.6682H117.891V44.0906H112.623V43.6566H114.026V32.9327ZM117.784 37.6976C119.486 37.6976 119.926 37.1759 119.926 35.1421C119.926 34.2031 119.767 33.6515 119.434 33.3203C119.118 33.0255 118.732 32.9377 117.784 32.9377H116.485V37.7026L117.784 37.6976Z" fill="#191929"/>
<path d="M128.451 38.7576L125.065 32.9327H123.995V32.4972H129.385V32.9327H127.893L130.751 37.9924L132.91 33.6979C133.104 33.3153 133.104 33.3153 133.104 33.211C133.104 32.9857 132.98 32.9327 132.49 32.9327H131.612V32.4972H135V32.9327H134.684C133.965 32.9675 133.771 33.0984 133.401 33.837L130.918 38.7576V43.6616H132.498V44.0906H126.871V43.6566H128.451V38.7576Z" fill="#191929"/>
<path d="M93.1458 21.8782H92.0105V21.2286H94.9413V21.8782H93.806V25.4101H93.1458V21.8782Z" fill="#191929"/>
<path d="M95.9187 21.2286H96.5524V22.9185H98.2159V21.2286H98.8496V25.4101H98.2159V23.5567H96.5524V25.4101H95.9187V21.2286Z" fill="#191929"/>
<path d="M100.152 21.2286H102.971V21.8782H100.91V22.9412H102.865V23.5681H100.91V24.7492H103.082V25.4101H100.152V21.2286Z" fill="#191929"/>
<path d="M92.0105 14.1543H94.6157V14.7552H92.7275V15.8058H94.506V16.3857H92.7275V18.0141H92.0105V14.1543Z" fill="#191929"/>
<path d="M95.6009 14.1543H96.9474C97.6754 14.1543 98.3761 14.4431 98.3761 15.2595C98.393 15.7822 98.011 16.2336 97.4903 16.3061L98.5233 18.0141H97.6817L96.7854 16.3814H96.2826V18.0141H95.5924L95.6009 14.1543ZM96.8633 15.8142C97.2525 15.8142 97.7049 15.7221 97.7049 15.2532C97.7049 14.8345 97.2841 14.7299 96.9327 14.7299H96.3015V15.8121L96.8633 15.8142Z" fill="#191929"/>
<path d="M101.283 14.1543C102.513 14.1543 103.408 14.8967 103.408 16.0742C103.408 17.2218 102.511 18.0141 101.283 18.0141C100.054 18.0141 99.1744 17.2158 99.1744 16.0742C99.1851 14.8967 100.071 14.1543 101.283 14.1543ZM101.283 17.4293C102.09 17.4293 102.64 16.8585 102.64 16.0742C102.64 15.2899 102.1 14.731 101.283 14.731C100.465 14.731 99.93 15.3178 99.93 16.0742C99.93 16.8306 100.489 17.4293 101.289 17.4293H101.283Z" fill="#191929"/>
<path d="M104.386 14.1543H105.477L106.496 16.8966H106.513L107.522 14.1543H108.62V18.0141H107.927V14.9111H107.916L106.725 18.012H106.236L105.062 14.9111H105.051V18.012H104.386V14.1543Z" fill="#191929"/>
<path d="M27.8525 26.5529C27.8525 26.5662 27.8525 26.5781 27.8525 26.5914H13.077C13.077 26.5781 13.077 26.5662 13.077 26.5529L12.7778 26.2565H11.1515L10.8523 26.5529V28.1665L11.1515 28.4629C11.1964 28.4629 11.2398 28.4629 11.2832 28.4629V31.8264C11.2398 31.8264 11.1964 31.8264 11.1515 31.8264L10.8523 32.1228V33.7171L11.1515 34.0135H12.7808L13.08 33.7171C13.08 33.7038 13.08 33.6919 13.08 33.6786H27.857C27.857 33.6919 27.857 33.7038 27.857 33.7171L28.1562 34.0135H29.7795L30.0787 33.7171V32.1094L29.7795 31.8131C29.7346 31.8131 29.6912 31.8131 29.6478 31.8131V28.4495C29.6912 28.4495 29.7346 28.4495 29.7795 28.4495L30.0787 28.1532V26.5529L29.7795 26.2565H28.1517L27.8525 26.5529ZM28.4943 33.397C28.5198 33.2978 28.5569 33.2018 28.605 33.1111C28.7138 32.9079 28.8742 32.7363 29.0703 32.6132C29.1607 32.5564 29.2576 32.5106 29.3591 32.4769C29.3995 32.4636 29.4384 32.4487 29.4803 32.4398V33.4208H28.4839C28.4869 33.4208 28.4913 33.4074 28.4928 33.3985L28.4943 33.397ZM29.0718 31.9479C28.5466 32.1558 28.1394 32.5807 27.9572 33.1111H12.9753C12.7932 32.5807 12.386 32.1558 11.8607 31.9479V28.3265C12.386 28.1187 12.7932 27.6937 12.9753 27.1634H27.9542C28.1364 27.6937 28.5436 28.1187 29.0688 28.3265L29.0718 31.9479ZM11.4523 32.4384C11.4942 32.4473 11.5331 32.4621 11.5734 32.4754C11.6749 32.5091 11.7719 32.5549 11.8622 32.6117C12.0583 32.7348 12.2187 32.9064 12.3275 33.1096C12.3756 33.2003 12.4127 33.2963 12.4382 33.3956C12.4382 33.4059 12.4382 33.4148 12.4472 33.4237H11.4508L11.4523 32.4384ZM12.4397 26.8774C12.4143 26.9767 12.3771 27.0727 12.329 27.1634C12.2202 27.3666 12.0598 27.5381 11.8637 27.6612C11.7734 27.7181 11.6764 27.7639 11.5749 27.7976C11.5345 27.8109 11.4957 27.8257 11.4538 27.8346V26.8478H12.4502C12.4442 26.8596 12.4397 26.8685 12.4382 26.8789L12.4397 26.8774ZM29.4833 27.8361C29.4414 27.8272 29.4025 27.8124 29.3621 27.799C29.2606 27.7654 29.1636 27.7196 29.0733 27.6627C28.8772 27.5396 28.7168 27.368 28.608 27.1649C28.5599 27.0742 28.5228 26.9782 28.4973 26.8789C28.4973 26.8685 28.4973 26.8596 28.4883 26.8507H29.4847L29.4833 27.8361Z" fill="#191929"/>
<path d="M22.3927 28.844V29.4368H22.8805C22.6336 30.5232 21.338 30.8256 20.554 30.8256C19.7102 30.8256 18.4759 30.4491 18.2291 29.4368H18.7138V28.844H17.8865L17.5873 29.1523C17.6172 29.8933 17.9957 30.5054 18.6839 30.9204C19.251 31.2481 19.896 31.42 20.5525 31.4184C21.9364 31.4184 23.4565 30.71 23.5178 29.1523L23.2186 28.844H22.3927Z" fill="#191929"/>
<path d="M28.1517 35.8703L27.8525 36.1667C27.8525 36.18 27.8525 36.1919 27.8525 36.2052H13.077C13.077 36.1919 13.077 36.18 13.077 36.1667L12.7778 35.8703H11.1515L10.8523 36.1667V37.7803L11.1515 38.0766C11.1964 38.0766 11.2398 38.0766 11.2832 38.0766V41.4402C11.2398 41.4402 11.1964 41.4402 11.1515 41.4402L10.8523 41.7365V43.3309L11.1515 43.6272H12.7808L13.08 43.3309C13.08 43.3176 13.08 43.3057 13.08 43.2924H27.857C27.857 43.3057 27.857 43.3176 27.857 43.3309L28.1562 43.6272H29.7795L30.0787 43.3309V41.7232L29.7795 41.4269C29.7346 41.4269 29.6912 41.4269 29.6478 41.4269V38.0633C29.6912 38.0633 29.7346 38.0633 29.7795 38.0633L30.0787 37.767V36.1667L29.7795 35.8703H28.1517ZM28.4943 43.0108C28.5198 42.9115 28.5569 42.8155 28.605 42.7249C28.7138 42.5217 28.8742 42.3501 29.0703 42.227C29.1607 42.1701 29.2576 42.1244 29.3591 42.0907C29.3995 42.0773 29.4384 42.0625 29.4803 42.0536V43.0345H28.4839C28.4869 43.0345 28.4913 43.0212 28.4928 43.0123L28.4943 43.0108ZM29.0718 41.5617C28.5466 41.7695 28.1394 42.1945 27.9572 42.7249H12.9753C12.7932 42.1945 12.386 41.7695 11.8607 41.5617V37.9403C12.386 37.7325 12.7932 37.3075 12.9753 36.7772H27.9542C28.1364 37.3075 28.5436 37.7325 29.0688 37.9403L29.0718 41.5617ZM11.4523 42.0521C11.4942 42.061 11.5331 42.0759 11.5734 42.0892C11.6749 42.1229 11.7719 42.1687 11.8622 42.2255C12.0583 42.3486 12.2187 42.5202 12.3275 42.7234C12.3756 42.8141 12.4127 42.9101 12.4382 43.0093C12.4382 43.0197 12.4382 43.0286 12.4472 43.0375H11.4508L11.4523 42.0521ZM12.4397 36.4912C12.4143 36.5905 12.3771 36.6865 12.329 36.7772C12.2202 36.9803 12.0598 37.1519 11.8637 37.275C11.7734 37.3319 11.6764 37.3777 11.5749 37.4113C11.5345 37.4247 11.4957 37.4395 11.4538 37.4484V36.4615H12.4502C12.4442 36.4734 12.4397 36.4823 12.4382 36.4927L12.4397 36.4912ZM29.4833 37.4499C29.4414 37.441 29.4025 37.4262 29.3621 37.4128C29.2606 37.3791 29.1636 37.3334 29.0733 37.2765C28.8772 37.1534 28.7168 36.9818 28.608 36.7786C28.5599 36.688 28.5228 36.592 28.4973 36.4927C28.4973 36.4823 28.4973 36.4734 28.4883 36.4645H29.4847L29.4833 37.4499Z" fill="#191929"/>
<path d="M22.3927 38.4596V39.0524H22.8805C22.6336 40.1388 21.338 40.4411 20.554 40.4411C19.7102 40.4411 18.4759 40.0647 18.2291 39.0524H18.7138V38.4596H17.8865L17.5873 38.7679C17.6172 39.5089 17.9957 40.121 18.6839 40.536C19.251 40.8636 19.896 41.0355 20.5525 41.0339C21.9364 41.0339 23.4565 40.3255 23.5178 38.7679L23.2186 38.4596H22.3927Z" fill="#191929"/>
<path d="M20.0719 3.26328V4.25479H20.6703V3.26328C21.5152 3.10997 22.1027 2.3437 22.025 1.49629C21.9473 0.648875 21.2301 0 20.3711 0C19.5122 0 18.7949 0.648875 18.7172 1.49629C18.6395 2.3437 19.227 3.10997 20.0719 3.26328ZM20.3711 0.595547C20.8007 0.595547 21.1881 0.851926 21.3525 1.24513C21.5169 1.63834 21.426 2.09094 21.1222 2.39189C20.8184 2.69284 20.3615 2.78287 19.9646 2.62C19.5677 2.45712 19.3089 2.07343 19.3089 1.64782C19.3097 1.06758 19.7839 0.597179 20.3696 0.595547H20.3711Z" fill="#191929"/>
<path d="M5.61248 48.8139C4.1665 48.8139 2.9943 49.9749 2.9943 51.407C2.9943 52.8391 4.1665 54 5.61248 54C7.05846 54 8.23065 52.8391 8.23065 51.407C8.229 49.9755 7.05777 48.8155 5.61248 48.8139ZM5.61248 53.4073C4.49701 53.4073 3.59275 52.5117 3.59275 51.407C3.59275 50.3022 4.49701 49.4066 5.61248 49.4066C6.72795 49.4066 7.63221 50.3022 7.63221 51.407C7.63056 52.511 6.72726 53.4057 5.61248 53.4073Z" fill="#191929"/>
<path d="M35.1752 48.8139C33.7292 48.8139 32.557 49.9749 32.557 51.407C32.557 52.8391 33.7292 54 35.1752 54C36.6211 54 37.7933 52.8391 37.7933 51.407C37.7917 49.9755 36.6205 48.8155 35.1752 48.8139ZM35.1752 53.4073C34.0597 53.4073 33.1554 52.5117 33.1554 51.407C33.1554 50.3022 34.0597 49.4066 35.1752 49.4066C36.2906 49.4066 37.1949 50.3022 37.1949 51.407C37.1932 52.511 36.2899 53.4057 35.1752 53.4073Z" fill="#191929"/>
<path d="M14.4727 14.4954C14.7023 14.4947 14.913 14.3696 15.0218 14.1694H26.0435C26.1805 14.4198 26.4716 14.5463 26.7504 14.4763C27.0292 14.4063 27.2244 14.1579 27.2244 13.873C27.2244 13.5882 27.0292 13.3397 26.7504 13.2698C26.4716 13.1998 26.1805 13.3262 26.0435 13.5767H20.8311V9.98495H20.2327V13.5782H15.0218C14.8749 13.3121 14.5555 13.19 14.2662 13.2895C13.977 13.3889 13.8026 13.6807 13.8537 13.9797C13.9048 14.2787 14.1665 14.4973 14.4727 14.4968V14.4954Z" fill="#191929"/>
<path d="M40.4998 46.5679C40.3121 46.5683 40.1373 46.6632 40.0361 46.8198H38.0313V19.3602C38.0263 11.9403 31.9564 5.92537 24.4646 5.91638H16.5907C9.10179 5.92536 3.03311 11.9358 3.02405 19.3528V46.8124H1.01928C0.886484 46.6077 0.633355 46.5141 0.397635 46.5827C0.161915 46.6512 0 46.8654 0 47.1087C0 47.352 0.161915 47.5662 0.397635 47.6348C0.633355 47.7033 0.886484 47.6098 1.01928 47.4051H40.0376C40.1814 47.6245 40.4621 47.7122 40.7071 47.6143C40.9521 47.5164 41.0927 47.2603 41.0425 47.0034C40.9924 46.7466 40.7655 46.5609 40.5013 46.5605L40.4998 46.5679ZM33.4966 46.8124H7.55872V21.1694C7.55872 14.0752 13.3655 8.3242 20.5284 8.3242C27.6914 8.3242 33.4981 14.0752 33.4981 21.1694L33.4966 46.8124ZM34.095 46.8124V38.0701H37.4343V46.8124H34.095ZM16.5907 6.50907H24.4646C31.6234 6.51724 37.4246 12.2628 37.4328 19.3528V37.4774H34.0935V21.1694C34.0935 13.7487 28.0196 7.73299 20.5269 7.73299C13.0343 7.73299 6.96029 13.7487 6.96029 21.1694V37.4774H3.62099V19.3602C3.62511 12.2667 9.42846 6.51643 16.5907 6.50907ZM3.62099 38.0701H6.96029V46.8124H3.62099V38.0701Z" fill="#191929"/>
</svg>
